<svg xmlns="http://www.w3.org/2000/svg" xmlns:xlink="http://www.w3.org/1999/xlink" viewBox="0 0 43 76" fill="#fff" fill-rule="evenodd" stroke="#000" stroke-linecap="round" stroke-linejoin="round"><use xlink:href="#R" x=".5" y=".5"/><defs><linearGradient id="A" x1="-0.11%" y1="50.00%" x2="99.67%" y2="50.00%"><stop offset="0%" stop-color="#1d242a"/><stop offset="51.1%" stop-color="#474336"/><stop offset="100%" stop-color="#4c5257"/></linearGradient><linearGradient id="B" x1="0.00%" y1="50.00%" x2="100.14%" y2="50.00%"><stop offset="0%" stop-color="#1d242a"/><stop offset="51.1%" stop-color="#474336"/><stop offset="100%" stop-color="#4c5257"/></linearGradient><linearGradient id="C" x1="-52.07%" y1="30.34%" x2="165.18%" y2="71.64%"><stop offset="11.8%" stop-color="#ab8f70"/><stop offset="55.6%" stop-color="#816641"/><stop offset="100%" stop-color="#5e4b34"/></linearGradient><linearGradient id="D" x1="-25.86%" y1="30.75%" x2="119.39%" y2="74.92%"><stop offset="3.4%" stop-color="#ab8f70"/><stop offset="30.3%" stop-color="#816641"/><stop offset="65.2%" stop-color="#5e4b34"/><stop offset="92.1%" stop-color="#494741"/></linearGradient><linearGradient id="E" x1="29.72%" y1="-1.52%" x2="70.31%" y2="103.36%"><stop offset="0%" stop-color="#1d242a"/><stop offset="33.7%" stop-color="#474336"/><stop offset="70.2%" stop-color="#4c5257"/><stop offset="98.9%" stop-color="#e9cd9f"/></linearGradient><linearGradient id="F" x1="25.03%" y1="23.82%" x2="91.09%" y2="77.72%"><stop offset="11.8%" stop-color="#ab8f70"/><stop offset="100%" stop-color="#e9cd9f"/></linearGradient><linearGradient id="G" x1="90.75%" y1="96.91%" x2="14.59%" y2="-8.03%"><stop offset="3.9%" stop-color="#6a7f86"/><stop offset="98.9%" stop-color="#576f79"/></linearGradient><linearGradient id="H" x1="144.82%" y1="87.61%" x2="-47.43%" y2="19.17%"><stop offset="0%" stop-color="#a8b5bf"/><stop offset="50%" stop-color="#6a7f86"/><stop offset="98.9%" stop-color="#576f79"/></linearGradient><linearGradient id="I" x1="105.26%" y1="93.08%" x2="9.51%" y2="19.91%"><stop offset="0%" stop-color="#a8b5bf"/><stop offset="50%" stop-color="#6a7f86"/><stop offset="98.9%" stop-color="#576f79"/></linearGradient><linearGradient id="J" x1="16.50%" y1="106.04%" x2="95.09%" y2="7.89%"><stop offset="12.9%" stop-color="#626961"/><stop offset="98.9%" stop-color="#818a87"/></linearGradient><linearGradient id="K" x1="-0.11%" y1="50.00%" x2="99.89%" y2="50.00%"><stop offset="7.9%" stop-color="#3f3c33"/><stop offset="86%" stop-color="#222521"/></linearGradient><linearGradient id="L" x1="106.46%" y1="41.65%" x2="25.52%" y2="52.82%"><stop offset="0%" stop-color="#1d242a"/><stop offset="51.1%" stop-color="#474336"/><stop offset="100%" stop-color="#4c5257"/></linearGradient><linearGradient id="M" x1="-0.00%" y1="50.00%" x2="100.12%" y2="50.00%"><stop offset="5.1%" stop-color="#818a87"/><stop offset="91.6%" stop-color="#968d7c"/></linearGradient><linearGradient id="N" x1="26.87%" y1="15.30%" x2="94.97%" y2="89.85%"><stop offset="5.1%" stop-color="#caae87"/><stop offset="41.6%" stop-color="#ab8f70"/><stop offset="96.6%" stop-color="#816641"/></linearGradient><linearGradient id="O" x1="-2.31%" y1="59.90%" x2="82.37%" y2="33.24%"><stop offset="0%" stop-color="#ab8f70"/><stop offset="23.6%" stop-color="#caae87"/><stop offset="42.1%" stop-color="#c3a882"/><stop offset="64.6%" stop-color="#ab8f70"/><stop offset="97.8%" stop-color="#816641"/></linearGradient><linearGradient id="P" x1="0.13%" y1="50.00%" x2="100.13%" y2="50.00%"><stop offset="5.1%" stop-color="#b9ae9e"/><stop offset="91.6%" stop-color="#ab8f70"/></linearGradient><linearGradient id="Q" x1="0.00%" y1="50.00%" x2="100.00%" y2="50.00%"><stop offset="9%" stop-color="#cbaf88"/><stop offset="74.7%" stop-color="#816641"/></linearGradient></defs><symbol id="R" overflow="visible"><g stroke="none" fill-rule="nonzero"><path d="M20.765 71.43s-2.31 1.305-2.61 1.8-.495.705-.195.9.81-.3 1.41-.195-.195.405.3.6.9-.3 1.5-.3.705-.405 1.11-.3-.3.705.405.9 1.005.105 1.41 0 0-.795.705-1.2 1.605-1.2 1.605-1.2l-5.64-1.005h0z" fill="url(#A)"/><path d="M9.02 68.31H7.31s-1.305.495-1.605 1.095-.6 1.11-.105 1.2c.495.105 1.41-.195 1.41-.195s-.195.6.405.495l.6-.105s.3.3.6.495.9-.3 1.5-.495 1.095.105 1.8 0 1.11 0 1.305-.3-.495-.3-.6-.81c-.105-.495 0-1.305 0-1.305l-3.6-.075h0z" fill="url(#B)"/><path d="M9.35 69.75c.48-.33 1.17-.345 1.32-.405.15-.075-.21-.315-.48-.24-.285.075-.66.21-1.08.405-.525.495-1.095.765-1.065 1.11s.075.3.27.045c.21-.24.555-.585 1.035-.915h0zm-1.05-.6c.48-.33 1.17-.345 1.32-.405.15-.075-.21-.315-.495-.24s-.66.21-1.08.405c-.525.495-1.095.765-1.065 1.11s.075.3.27.045c.225-.24.57-.585 1.05-.915h0zm15.165 4.11c.39-.435 1.05-.6 1.185-.705s-.27-.255-.525-.105c-.255.135-.6.36-.945.645-.39.615-.885 1.005-.765 1.32.105.33.135.27.27-.015.135-.3.39-.72.78-1.14h0zm-2.55-.48c.435-.465 1.17-.735 1.32-.855s-.285-.195-.57-.03c-.27.165-.66.42-1.05.75-.45.63-.99 1.08-.885 1.365s.135.225.3-.06c.15-.285.45-.705.885-1.17h0z" fill="#546168"/><path d="M6.71 14.745s-1.5.9-1.41 1.2c.105.3 1.11.405 1.11.6S5 18.255 5 18.255s-1.41.495-1.2.705c.195.195 1.41 0 1.71 0s-1.005.705-1.005.705l.9.3c.3.105-2.505 1.5-2.205 1.8 1.11-.405 1.305-.705 1.41-.405s-.21.9-.81 1.2-.93 1.365-.495 1.11c.495-.3 1.11-1.11 1.305-.705s-2.1 1.5-1.605 2.01c.495.495 1.41 0 1.41.405s-1.71 1.305-1.5 1.71c.195.405 1.305-1.005 1.5-.6.21.405-.705 2.31-.705 2.31s-.405 2.205-1.005 4.215.6 4.71.705 5.715.105 2.805-.3 3.21-1.2 1.605-.9 1.605.9-.795 1.41-.6-1.71 1.305-1.095 1.41c.6.105.495-.405.9-.195.405.195-1.005 2.01-.795 2.205.195.195.405-.195.705 0S2.54 48.57 2.63 48.87c.105.3.705-.9 1.005-.705s-1.305 2.115-1.2 2.4c.105.3 1.11-.9 1.11-.405s-.705 1.305-1.11 2.91.495 3.705.81 5.22c.3 1.5 3.81 7.725 4.215 8.22.405.51-.405 1.11-.3 1.5.105.405.195.9 1.095.9s1.41-.3 1.8-.3c.405 0 1.5-.105 2.205 0s.405.195.9.195 1.2.885 1.71 1.08c.495.195 1.095.195 1.095.195l1.2-35.685-3.915-17.55-6.54-2.1h0z" fill="url(#C)"/><path d="M14.27 36.18c-.09 1.335-1.575 13.785-1.365 17.565.21 3.795 1.47 14.73 2.415 15.78s1.05 1.365 1.89 1.785 7.05.945 8.52 1.785 5.685 1.89 6.945 1.89.945-.945 1.26-1.05.78-.225.945-.315c.15-.09-.165-.48 0-.525.15-.045.855-.075 1.05-.105s-.24-.75 0-.735c.24 0 .765.24 1.05.21s-.345-.765-.315-1.05.42-.315.42-.63-.36-.765-.225-.93.57.24.75.075-.585-1.08-.315-1.14.585.555.645.285c.075-.27-.54-.84-.54-1.335s.885-4.11 1.155-4.95.405-9.195.735-9.36.495.21.735 0-.36-.72-.21-.945.375.18.525 0-.39-.84-.315-1.05c.075-.225.57-.435.735-.63s-.36-.615-.21-.84c.15-.24.66.12.84-.21-.465-.465-.825-.69-.735-.945s.495-.27.84-.63c-.885-.585-1.065-1.26-.84-1.575s.3-.36.525-.84-.345-.96-.21-1.26c.135-.315.645-.795.735-1.05.09-.27-.18-.6-.63-1.26s-2.64-3.675-2.415-5.265c.39-.12 1.245.615 1.575.42.345-.195-2.46-1.245-1.89-1.575.225-.18.78.36 1.05 0-.57-.495-.885-.735-.945-1.05.6-.09 1.095-.42 1.155-.735s-1.74-.675-2.1-2.52c-.195-.675.39-.93.42-1.26s-2.07-.555-1.785-1.365c.12-.27.6-.06.84-.21-.555-.15-.945-1.155-.945-1.155s.84.57 1.47 0c.285-.225-2.07-.915-1.68-1.47.18-.18.6-.015.84-.315-.75-.225-1.44-1.2-1.11-1.14.735.135 1.035.285 1.065.015s-1.41-.54-1.545-1.5c.615-.18.69-.24.855-.42.15-.18-1.905-.495-1.2-.84.27-.09 1.35.33 1.485 0s-3.795-1.29-3.27-2.31c.615.195 2.235.51 2.31.225.09-.285-.96-.48-2.595-2.115-1.62-1.635-3.57-5.37-4.845-7.05-1.26-1.68-3.36-5.79-5.46-6.315-2.115-.525-10.2 8.73-10.2 8.73l-.84 5.685c-.195 1.2-.555 4.29-.105 4.53s.765-.345 1.155 0c.855.795-1.17 2.085-.855 2.1.315 0 1.38-1.005 1.695-.72.42 1.23-1.62 2.1-1.245 2.385.39.27 1.305-.885 1.455-.6s-.15 1.35-.855 2.445c.675 0 1.05-.72 1.38-.66s-.885 2.25-.33 2.31c.57.06.825-.705 1.17-.525s-.99 2.88-.66 2.985.48-.72.765-.465c.3.21-.525 2.4-.615 3.735h0z" fill="url(#D)"/><path d="M.59 4.905l.09 3.96.735.99.27 1.905 3.33 2.28 4.11 3.315c1.605 1.215 2.31 1.71 3.315 2.01s2.205.81 2.91.9c.705.105 1.2-.3 2.01 0 .795.3 1.605 1.41 2.205 1.41s-.105-1.8.6-1.71c.705.105 2.01.9 2.31.795s-.195-1.2.3-1.305 1.2.3 1.5.3-.3-1.305 0-1.5.705-.705 1.11-1.005-1.5-.405-1.005-.6 1.005 0 1.5-.405-1.41-1.2-.81-1.305 1.305-.105 1.605-.3-1.605-.105-1.605-.705.6-.795.705-1.2-1.2-1.095-1.2-1.41c0-.3.705 0 .705-.51 0-.495-1.2-.795-1.2-1.2s.6.195.495-.195c-.105-.405-.9-.495-.9-1.095s.105-1.305 0-2.01-1.11-2.31-2.31-3.315-2.61-1.605-4.215-2.1-3.81-.9-5.22-.9-3.21.405-4.215.405S4.7 1.5 4.1 1.905s-1.41.405-1.41.405L.59 4.905h0z" fill="url(#E)"/><path d="M25.07 14.955c.6-.105 1.305-.105 1.605-.3s-1.605-.105-1.605-.705.6-.795.705-1.2-1.2-1.095-1.2-1.41c0-.3.705 0 .705-.51 0-.495-1.2-.795-1.2-1.2s.6.195.495-.195c-.105-.405-.9-.495-.9-1.095l.045-1.11c-.33.63-.735 1.17-1.14 1.575-1.2 1.5-2.1 3.315-3.615 4.515-3.33 2.49-8.955-.375-9.105 4.59 1.125.825 1.755 1.215 2.58 1.47 1.005.3 2.205.81 2.91.9.705.105 1.2-.3 2.01 0 .795.3 1.605 1.41 2.205 1.41s-.105-1.8.6-1.71c.705.105 2.01.9 2.31.795s-.195-1.2.3-1.305 1.2.3 1.5.3-.3-1.305 0-1.5.705-.705 1.11-1.005-1.5-.405-1.005-.6 1.005 0 1.5-.405c.495-.42-1.41-1.215-.81-1.305h0z" fill="url(#F)"/><path d="M1.415 9.855c-.525.405-.105.675-.06 1.08s.45 1.2 1.05 1.8a7.98 7.98 0 0 0 2.01 1.5c.9.495 1.605 1.2 2.31 1.2s.9-1.2 1.005-1.8-.105-1.095-.495-1.35c-.405-.255-2.205-.645-2.715-.645-.495 0-1.2.3-1.605.105s-.945-1.05-.945-1.35c-.015-.315-.03-.945-.555-.54h0z" fill="url(#G)"/><path d="M.694 4.32s-.6 3.285-.495 4.02c.105.72.585 1.665.9 1.71.33.03.645.075.795 0C2.059 9.96.934 9 .889 8.43s0-2.235 0-2.61-.195-1.5-.195-1.5z" fill="url(#H)"/><path d="M2.63 6.345c-.45.375-.75.825-.975 1.425s0 1.575.525 2.1 2.64 1.575 3.315 1.965c.675.375 1.425.525 1.74.45.3-.075-.825-1.575-.525-2.175s.75-.45.9-1.05.075-2.25-.15-3.015c-.225-.75-1.5-1.875-1.8-2.25S4.535 2.52 4.385 2.82s-.075 2.49-.6 3.015c-.555.51-.705.135-1.155.51z" fill="url(#I)"/><path d="M1.7 5.115l2.415-.3c.495 0 .405-2.01.3-2.31s-.3-.3-.705-.405-1.905.705-2.31.9-.705.495-.705 1.2c0 .72.405 1.02 1.005.915z" fill="url(#J)"/><path d="M10.73 6.421c.405.105 1.71.195 2.505.195s1.605-.6 1.71-1.005-.195-1.095-.495-1.305c-.3-.195-.705-.195-1.305-.405-.6-.195-3.405 1.2-3.315 1.8.09.615.495.615.9.72z" fill="url(#K)"/><path d="M10.22 5.325c-.3-.405 1.605-1.71 2.31-1.605s1.5.705 1.605 1.005-.3 1.2-1.005 1.305c-.69.09-2.61-.315-2.91-.705z" fill="#131213"/><path d="M19.58 4.77l2.76-.9 1.875.81-.075 1.95-1.635 2.235-.81 1.02s-.93.36-1.38.165-.9-1.485-.48-1.785c.405-.315.24-.645.24-1.05s-.165-.255-.57-.57c-.42-.315.075-1.875.075-1.875h0z" fill="url(#L)"/><path d="M12.125 4.62c.195-.3.495-.495.9-.405.405.105.9.405.6.81s-.405 0-.81.195c-.375.195-.885-.3-.69-.6z" fill="#546168"/><path d="M18.95 4.71s1.2-1.005 2.31-1.11 1.71 0 2.505.405.795 1.41.6 2.31-1.41 2.505-1.905 3.105-1.71.9-1.71.9.705-.81 1.41-1.41 1.71-2.4 1.71-2.91c0-.495-.3-1.5-.705-1.5s-1.5-.195-2.01-.105c-.495.105-1.8 1.305-1.8 1.305" fill="url(#M)"/><path d="M8 44.22c-.255.045-.96-1.125-.915-1.845-.555.075-.75 2.22-1.11 2.22-.345 0-.84-1.245-.915-2.4S3.65 37.14 3.035 36.48c-.63-.66-2.055-3.585-2.58-4.8s-.51-5.25-.375-6.45 1.875-4.08 2.58-4.605 2.265-1.29 3.135-1.11c.87.195 1.665 3.315 1.665 3.315l1.845 9.405c-.12 1.395-.255 2.805.375 4.065-.435.24-.99-.165-1.29 0s.285 1.395.93 2.22c-.45.345-.63-.255-.93-.18s.405 2.46 1.11 3.135c-.24.3-.78 0-1.29.375-.525.345.045 2.325-.21 2.37h0z" fill="url(#N)"/><path d="M24.59 20.805c1.02 0 3.78-1.29 4.425-1.29s3.51 1.2 3.51 1.665-1.02.18-1.29.375c-.285.18 2.865.825 2.76 1.29-.09.465-1.02.645-1.47.735-.465.09 2.67 1.755 2.4 2.025-.285.27-.465.555-1.11.735s0 2.025-.375 2.22c-.375.18-.555-1.29-.93-1.11s.645 2.955.375 3.315c-.285.375-.465-.735-.735-.555s-.465 2.865-.555 3.87c-.09 1.02-1.11 3.96-1.845 4.605s-5.625 4.065-7.56 4.425l-6.645 1.47c.555-.375.465-1.02.18-1.47-.27-.465-1.11-.27-1.47-.555-.375-.27.375-.825 0-1.11-.375-.27-.825.09-1.47 0s.825-.645 0-.915c-.825-.285-1.11.09-1.47 0-.375-.09.465-1.2.18-2.025l-1.665-4.8c-.18-.465.735-.645.555-1.29s-1.29-2.4-2.025-3.135-1.11-1.845-1.29-2.22.075-1.23 0-1.845-.825-1.575-.735-2.22.375-1.2.735-1.47c.375-.27 1.2-1.02 1.665-.93s1.845.18 2.4.18 1.38 1.2 1.47 1.665.18 1.38.735 1.845 4.05 3.51 4.8 3.51c.735 0 1.755-.375 1.665-.735-.09-.375-1.005-.27-1.29-.735s1.2-.18 1.47-.375c.27-.18-.285-.735-.375-1.11s2.31-1.38 2.025-1.665c-.27-.27-1.2 0-1.47-.18s2.13-.735 2.025-1.11c-.09-.375-.825-.825-.555-1.11.285-.255 1.95.03 2.955.03h0z" fill="url(#O)"/><path d="M2.645 24.855c-.315-.585.435-2.25.735-2.76.3-.525 1.635-1.215 2.025-1.29s1.635.39 1.665.735c.03.36-.66 1.05-.735 1.47s.48.69.555 1.11-.48.765-.555 1.11.78 1.155.735 1.845-1.05 1.665-2.025 1.665-1.62-.9-1.845-1.29c-.225-.405-.225-2.01-.555-2.595z" fill="url(#P)"/><path d="M4.85 25.5c.645-.135 1.35.255 1.545.255s-.06-.51-.39-.585c-.33-.06-.78-.135-1.29-.135-.78.315-1.485.315-1.62.78-.12.45-.06.42.255.225.33-.18.855-.405 1.5-.54h0zm3.81-2.835c.585.3.9 1.05 1.05 1.17s.27-.45.06-.69c-.21-.255-.525-.585-.93-.9-.81-.225-1.365-.675-1.74-.405-.39.27-.315.285.06.33s.915.195 1.5.495h0zm-.3 2.46c.51.285.825.9.96 1.005s.18-.33 0-.54c-.195-.21-.48-.495-.84-.78-.675-.24-1.17-.645-1.455-.45-.3.18-.225.195.075.27.3.045.75.21 1.26.495h0zm-3.585-2.34c.645-.03 1.335.285 1.53.3s-.03-.36-.345-.435-.765-.15-1.275-.195c-.795.165-1.5.105-1.65.39-.15.3-.09.285.24.18a6.92 6.92 0 0 1 1.5-.24h0z" fill="#5e4d35"/><path d="M5.855.975L11.48.15l5.67.75c.495.075-7.875.96-7.215 1.38.66.405-.735.24-1.14.81s.165 1.965-.33 2.115c-.495.165-2.04-1.23-2.28-1.47s.075-.9-.495-1.14-1.8-.645-1.8-.645l1.14-.57.825-.405h0z" fill="url(#Q)"/></g></symbol></svg>